<svg width="834" height="193" viewBox="0 0 834 193" fill="none" xmlns="http://www.w3.org/2000/svg">
<path d="M588.197 20.3476L608.829 2.95204L629.007 32.3257L606.131 56.9661L615.538 32.2803L600.86 39.7794L588.197 20.3476Z" fill="#0D21DD" stroke="#0A1AB8" stroke-width="4"/>
<path d="M667.187 98.1612C653.844 110.557 635.811 126.897 635.811 126.897L629.053 79.2868C629.053 79.2868 694.876 44.4066 704.486 74.4469C709.802 91.0638 710.53 94.9305 697.767 119.06C685.005 143.189 662.576 171.127 662.576 171.127L725.962 147.463L714.693 190.353L629.052 190.353L635.811 161.267C635.811 161.267 668.493 129.151 677.219 119.06C685.945 108.969 680.53 85.7651 667.187 98.1612Z" fill="#0D21DD" stroke="#0A1AB8" stroke-width="4"/>
<path fill-rule="evenodd" clip-rule="evenodd" d="M738.802 93.0616C740.316 77.8198 761.605 53.7128 786.969 57.3258C812.307 60.9352 824.461 62.4101 824.486 62.4131L814.895 93.0099C814.842 92.9866 802.913 87.684 783.8 79.4206C764.644 71.1391 753.781 88.9747 758.866 104.481C763.934 119.931 765.226 124.403 765.235 124.435L801.648 117.212L831.53 143.141L816.307 190.442H798.828V190.495H758.204L735.184 170.112C735.187 170.013 737.289 108.292 738.802 93.0616ZM770.919 149.41L771.765 168.216H798.828L796.02 138.697L770.919 149.41Z" fill="#0D21DD" stroke="#0A1AB8" stroke-width="4"/>
<path d="M463.104 36.1731C476.041 36.173 478.352 53.101 478.352 69.0471V111.489L503.534 106.336L507.23 65.3675H488.748V36.1731H552.513V65.3675H528.948L542.348 190.728H494.524L500.068 133.568L478.352 136.756L474.887 180.424C474.887 180.424 450.627 172.112 427.986 165.459C405.346 158.806 408.141 128.899 423.366 124.245C438.552 119.604 448.266 117.632 448.317 117.621C448.317 117.621 452.707 73.7088 452.938 68.0657C453.17 62.4233 440.001 54.0823 439.308 58.0071C438.616 61.9267 436.31 98.382 436.304 98.4856L407.656 68.0657C407.448 49.1837 410.946 36.118 422.904 36.1731H463.104ZM322.31 36.2268H322.617L400.572 36.3899L395.332 65.5882H382.968V110.186L423.012 99.8147L409.705 129.088L380.918 128.391L373.092 180.232C358.35 176.94 327.836 168.123 323.714 159.192C319.815 151.616 316.399 134.85 333.929 128.391L368.368 114.695V65.5882L318.561 65.4407H289.731L304.859 107.277C306.247 119.119 301.983 140.484 273.826 131.21L313.942 188.801H262.851L240.144 102.789H261.337C263.054 110.85 264.887 111.719 268.149 113.26C273.826 114.756 284.044 114.756 279.503 102.789L265.499 66.1409H224.708V66.1331L207.105 66.2981L223.281 188.861H172.681L186.16 66.2981H156.09L170.191 188.861L121.25 187.616L126.651 132.955L117.864 129.492C124.207 173.873 99.2375 188.895 81.2295 188.925C44.2416 190.373 10.4503 170.367 2.32617 147.899L31.1553 120.58C39.5445 148.966 59.0977 153.482 59.0977 153.482C65.9724 155.034 79.4999 156.587 90.3662 147.051C101.233 137.515 101.024 120.773 82.8262 119.33C75.681 118.764 57.1604 126.142 57.1016 126.165L50.2266 108.647C50.2266 108.647 57.3119 105.176 63.5322 100.442C79.2772 88.4566 74.842 71.8341 63.5322 69.6165C52.2225 67.3992 36.4872 79.134 25.6113 88.0227L13.8574 52.762C35.6511 34.8134 71.5952 36.5167 81.2295 38.3938C120.909 48.1678 98.7246 105.078 98.7246 105.078L130.069 98.552L133.9 66.2981H112.986V36.2278H225.763V36.2268H318.561V36.219L322.31 36.2268Z" fill="#FF9A00"/>
<path d="M463.104 36.1731V38.1731H463.104L463.104 36.1731ZM478.352 111.489H476.352V113.939L478.752 113.448L478.352 111.489ZM503.534 106.336L503.935 108.296L505.392 107.997L505.526 106.516L503.534 106.336ZM507.23 65.3675L509.222 65.5472L509.419 63.3675H507.23V65.3675ZM488.748 65.3675H486.748V67.3675H488.748V65.3675ZM488.748 36.1731V34.1731H486.748V36.1731H488.748ZM552.513 36.1731H554.513V34.1731H552.513V36.1731ZM552.513 65.3675V67.3675H554.513V65.3675H552.513ZM528.948 65.3675V63.3675H526.723L526.96 65.58L528.948 65.3675ZM542.348 190.728V192.728H544.573L544.336 190.515L542.348 190.728ZM494.524 190.728L492.534 190.535L492.321 192.728H494.524V190.728ZM500.068 133.568L502.059 133.761L502.306 131.218L499.778 131.589L500.068 133.568ZM478.352 136.756L478.061 134.777L476.484 135.009L476.358 136.598L478.352 136.756ZM474.887 180.424L474.238 182.316L476.677 183.151L476.88 180.582L474.887 180.424ZM427.986 165.459L427.422 167.378H427.422L427.986 165.459ZM423.366 124.245L422.782 122.333V122.333L423.366 124.245ZM448.317 117.621L448.715 119.581L450.161 119.288L450.307 117.82L448.317 117.621ZM452.938 68.0657L454.937 68.1475V68.1475L452.938 68.0657ZM439.308 58.0071L437.338 57.6591L437.338 57.6593L439.308 58.0071ZM436.304 98.4856L434.848 99.8568L438.009 103.213L438.3 98.6118L436.304 98.4856ZM407.656 68.0657L405.656 68.0877L405.665 68.8685L406.2 69.4369L407.656 68.0657ZM422.904 36.1731L422.895 38.1731H422.904V36.1731ZM322.31 36.2268L322.305 38.2268H322.31V36.2268ZM322.617 36.2268L322.621 34.2268H322.617V36.2268ZM400.572 36.3899L402.541 36.7432L402.962 34.3949L400.576 34.3899L400.572 36.3899ZM395.332 65.5882V67.5882H397.005L397.301 65.9415L395.332 65.5882ZM382.968 65.5882V63.5882H380.968V65.5882H382.968ZM382.968 110.186H380.968V112.77L383.469 112.122L382.968 110.186ZM423.012 99.8147L424.832 100.642L426.566 96.8281L422.51 97.8786L423.012 99.8147ZM409.705 129.088L409.657 131.088L410.979 131.12L411.526 129.916L409.705 129.088ZM380.918 128.391L380.966 126.391L379.204 126.349L378.94 128.092L380.918 128.391ZM373.092 180.232L372.656 182.184L374.749 182.651L375.069 180.53L373.092 180.232ZM323.714 159.192L325.53 158.354L325.512 158.315L325.492 158.276L323.714 159.192ZM333.929 128.391L334.62 130.268L334.644 130.259L334.668 130.249L333.929 128.391ZM368.368 114.695L369.107 116.553L370.368 116.052V114.695H368.368ZM368.368 65.5882H370.368V63.5941L368.374 63.5882L368.368 65.5882ZM318.561 65.4407L318.566 63.4407H318.561V65.4407ZM289.731 65.4407V63.4407H286.882L287.851 66.1208L289.731 65.4407ZM304.859 107.277L306.846 107.044L306.819 106.814L306.74 106.597L304.859 107.277ZM273.826 131.21L274.452 129.311L268.76 127.436L272.185 132.353L273.826 131.21ZM313.942 188.801V190.801H317.773L315.583 187.658L313.942 188.801ZM262.851 188.801L260.917 189.312L261.31 190.801H262.851V188.801ZM240.144 102.789H261.337L262.956 100.789H261.337V102.789ZM268.149 113.26L267.295 115.068L267.462 115.147L267.64 115.194L268.149 113.26ZM279.503 102.789L281.373 102.08L281.371 102.075L279.503 102.789ZM265.499 66.1409L267.367 65.427L266.876 64.1409H265.499V66.1409ZM224.708 66.1409H222.708V68.1409H224.708V66.1409ZM224.708 66.1331L207.105 66.2981L223.281 188.861H172.681L186.16 66.2981H156.09L170.191 188.861L121.25 187.616L126.651 132.955L117.864 129.492C124.207 173.873 99.2375 188.895 81.2295 188.925C44.2416 190.373 10.4503 170.367 2.32617 147.899L31.1553 120.58C39.5445 148.966 59.0977 153.482 59.0977 153.482C65.9724 155.034 79.4999 156.587 90.3662 147.051C101.233 137.515 101.024 120.773 82.8262 119.33C75.681 118.764 57.1604 126.142 57.1016 126.165L50.2266 108.647C50.2266 108.647 57.3119 105.176 63.5322 100.442C79.2772 88.4566 74.842 71.8341 63.5322 69.6165C52.2225 67.3992 36.4872 79.134 25.6113 88.0227L13.8574 52.762C35.6511 34.8134 71.5952 36.5167 81.2295 38.3938C120.909 48.1678 98.7246 105.078 98.7246 105.078L130.069 98.552L133.9 66.2981H112.986V36.2278H225.763V36.2268H318.561V36.219L322.31 36.2268ZM322.31 36.2268Z" fill="#030404"/>
<path d="M463.104 36.1731V38.1731H463.104L463.104 36.1731ZM478.352 111.489H476.352V113.939L478.752 113.448L478.352 111.489ZM503.534 106.336L503.935 108.296L505.392 107.997L505.526 106.516L503.534 106.336ZM507.23 65.3675L509.222 65.5472L509.419 63.3675H507.23V65.3675ZM488.748 65.3675H486.748V67.3675H488.748V65.3675ZM488.748 36.1731V34.1731H486.748V36.1731H488.748ZM552.513 36.1731H554.513V34.1731H552.513V36.1731ZM552.513 65.3675V67.3675H554.513V65.3675H552.513ZM528.948 65.3675V63.3675H526.723L526.96 65.58L528.948 65.3675ZM542.348 190.728V192.728H544.573L544.336 190.515L542.348 190.728ZM494.524 190.728L492.534 190.535L492.321 192.728H494.524V190.728ZM500.068 133.568L502.059 133.761L502.306 131.218L499.778 131.589L500.068 133.568ZM478.352 136.756L478.061 134.777L476.484 135.009L476.358 136.598L478.352 136.756ZM474.887 180.424L474.238 182.316L476.677 183.151L476.88 180.582L474.887 180.424ZM427.986 165.459L427.422 167.378H427.422L427.986 165.459ZM423.366 124.245L422.782 122.333V122.333L423.366 124.245ZM448.317 117.621L448.715 119.581L450.161 119.288L450.307 117.82L448.317 117.621ZM452.938 68.0657L454.937 68.1475V68.1475L452.938 68.0657ZM439.308 58.0071L437.338 57.6591L437.338 57.6593L439.308 58.0071ZM436.304 98.4856L434.848 99.8568L438.009 103.213L438.3 98.6118L436.304 98.4856ZM407.656 68.0657L405.656 68.0877L405.665 68.8685L406.2 69.4369L407.656 68.0657ZM422.904 36.1731L422.895 38.1731H422.904V36.1731ZM322.31 36.2268L322.305 38.2268H322.31V36.2268ZM322.617 36.2268L322.621 34.2268H322.617V36.2268ZM400.572 36.3899L402.541 36.7432L402.962 34.3949L400.576 34.3899L400.572 36.3899ZM395.332 65.5882V67.5882H397.005L397.301 65.9415L395.332 65.5882ZM382.968 65.5882V63.5882H380.968V65.5882H382.968ZM382.968 110.186H380.968V112.77L383.469 112.122L382.968 110.186ZM423.012 99.8147L424.832 100.642L426.566 96.8281L422.51 97.8786L423.012 99.8147ZM409.705 129.088L409.657 131.088L410.979 131.12L411.526 129.916L409.705 129.088ZM380.918 128.391L380.966 126.391L379.204 126.349L378.94 128.092L380.918 128.391ZM373.092 180.232L372.656 182.184L374.749 182.651L375.069 180.53L373.092 180.232ZM323.714 159.192L325.53 158.354L325.512 158.315L325.492 158.276L323.714 159.192ZM333.929 128.391L334.62 130.268L334.644 130.259L334.668 130.249L333.929 128.391ZM368.368 114.695L369.107 116.553L370.368 116.052V114.695H368.368ZM368.368 65.5882H370.368V63.5941L368.374 63.5882L368.368 65.5882ZM318.561 65.4407L318.566 63.4407H318.561V65.4407ZM289.731 65.4407V63.4407H286.882L287.851 66.1208L289.731 65.4407ZM304.859 107.277L306.846 107.044L306.819 106.814L306.74 106.597L304.859 107.277ZM273.826 131.21L274.452 129.311L268.76 127.436L272.185 132.353L273.826 131.21ZM313.942 188.801V190.801H317.773L315.583 187.658L313.942 188.801ZM262.851 188.801L260.917 189.312L261.31 190.801H262.851V188.801ZM240.144 102.789V100.789H237.547L238.21 103.3L240.144 102.789ZM261.337 102.789L263.293 102.373L262.956 100.789H261.337V102.789ZM268.149 113.26L267.295 115.068L267.462 115.147L267.64 115.194L268.149 113.26ZM279.503 102.789L281.373 102.08L281.371 102.075L279.503 102.789ZM265.499 66.1409L267.367 65.427L266.876 64.1409H265.499V66.1409ZM224.708 66.1409H222.708V68.1409H224.708V66.1409ZM224.708 66.1331L224.689 64.1332L207.087 64.2982L207.105 66.2981L207.124 68.298L224.727 68.133L224.708 66.1331ZM207.105 66.2981L205.123 66.5598L221.298 189.122L223.281 188.861L225.264 188.599L209.088 66.0364L207.105 66.2981ZM223.281 188.861V186.861H172.681V188.861V190.861H223.281V188.861ZM172.681 188.861L174.669 189.079L188.148 66.5168L186.16 66.2981L184.172 66.0795L170.693 188.642L172.681 188.861ZM186.16 66.2981V64.2981H156.09V66.2981V68.2981H186.16V66.2981ZM156.09 66.2981L154.103 66.5267L168.205 189.089L170.191 188.861L172.178 188.632L158.077 66.0695L156.09 66.2981ZM170.191 188.861L170.242 186.861L121.301 185.617L121.25 187.616L121.199 189.616L170.141 190.86L170.191 188.861ZM121.25 187.616L123.24 187.813L128.642 133.152L126.651 132.955L124.661 132.759L119.26 187.42L121.25 187.616ZM126.651 132.955L127.385 131.095L118.598 127.632L117.864 129.492L117.131 131.353L125.918 134.816L126.651 132.955ZM117.864 129.492L115.884 129.775C118.999 151.567 114.387 165.803 107.137 174.565C99.8621 183.358 89.7114 186.911 81.2261 186.925L81.2295 188.925L81.2329 190.925C90.7555 190.909 102.094 186.936 110.219 177.115C118.37 167.264 123.072 151.798 119.844 129.209L117.864 129.492ZM81.2295 188.925L81.1512 186.927C63.0302 187.636 45.69 183.087 31.9064 175.622C18.0822 168.135 8.04694 157.838 4.20699 147.219L2.32617 147.899L0.445349 148.579C4.7295 160.427 15.652 171.368 30.0015 179.139C44.3915 186.932 62.4408 191.662 81.3077 190.924L81.2295 188.925ZM2.32617 147.899L3.70184 149.35L32.5309 122.032L31.1553 120.58L29.7796 119.129L0.950508 146.447L2.32617 147.899ZM31.1553 120.58L29.2373 121.147C33.5519 135.746 40.78 144.319 47.0347 149.247C50.1517 151.702 53.0065 153.237 55.1039 154.162C56.1526 154.625 57.013 154.936 57.6235 155.134C57.9288 155.234 58.1718 155.305 58.345 155.352C58.4316 155.376 58.5007 155.394 58.5515 155.407C58.5769 155.413 58.5976 155.418 58.6137 155.422C58.6217 155.424 58.6286 155.426 58.6342 155.427C58.6371 155.428 58.6396 155.429 58.6418 155.429C58.6429 155.429 58.6444 155.43 58.645 155.43C58.6463 155.43 58.6476 155.43 59.0977 153.482C59.5477 151.533 59.5488 151.533 59.5499 151.534C59.5502 151.534 59.5512 151.534 59.5517 151.534C59.5527 151.534 59.5535 151.534 59.5539 151.534C59.5549 151.535 59.5546 151.535 59.5532 151.534C59.5504 151.534 59.543 151.532 59.5311 151.529C59.5074 151.523 59.4657 151.512 59.407 151.496C59.2897 151.464 59.1045 151.41 58.8587 151.33C58.3671 151.17 57.6343 150.907 56.7189 150.503C54.8879 149.695 52.3301 148.326 49.5101 146.105C43.891 141.678 37.1479 133.8 33.0733 120.013L31.1553 120.58ZM59.0977 153.482L58.6571 155.433C65.6905 157.021 80.0663 158.751 91.6854 148.554L90.3662 147.051L89.047 145.548C78.9336 154.423 66.2542 153.047 59.5382 151.531L59.0977 153.482ZM90.3662 147.051L91.6854 148.554C97.5066 143.446 100.582 136.218 99.4656 129.812C98.9013 126.574 97.2648 123.605 94.4568 121.366C91.6656 119.139 87.8311 117.721 82.9842 117.337L82.8262 119.33L82.6682 121.324C86.9202 121.661 89.936 122.876 91.9625 124.493C93.9722 126.096 95.1208 128.179 95.525 130.499C96.3458 135.209 94.0922 141.12 89.047 145.548L90.3662 147.051ZM82.8262 119.33L82.9842 117.337C80.8815 117.17 78.1374 117.585 75.3647 118.204C72.5406 118.835 69.4903 119.725 66.6948 120.623C61.1008 122.419 56.4076 124.289 56.3611 124.307L57.1016 126.165L57.842 128.023C57.8421 128.023 57.8421 128.023 57.8422 128.023C57.8424 128.023 57.8426 128.023 57.8429 128.023C57.8435 128.023 57.8444 128.022 57.8455 128.022C57.8478 128.021 57.8513 128.02 57.8558 128.018C57.8648 128.014 57.8782 128.009 57.8959 128.002C57.9313 127.988 57.9837 127.967 58.0523 127.94C58.1895 127.886 58.3913 127.808 58.6504 127.708C59.1688 127.508 59.9162 127.223 60.8345 126.884C62.6725 126.204 65.188 125.308 67.9182 124.431C70.6533 123.552 73.5766 122.702 76.2365 122.108C78.9479 121.502 81.1982 121.208 82.6682 121.324L82.8262 119.33ZM57.1016 126.165L58.9633 125.435L52.0883 107.916L50.2266 108.647L48.3648 109.377L55.2398 126.896L57.1016 126.165ZM50.2266 108.647C51.1063 110.443 51.1065 110.443 51.1067 110.443C51.1068 110.443 51.1071 110.443 51.1073 110.442C51.1077 110.442 51.1083 110.442 51.1089 110.442C51.1102 110.441 51.112 110.44 51.1142 110.439C51.1185 110.437 51.1245 110.434 51.1323 110.43C51.1477 110.422 51.1699 110.411 51.1985 110.397C51.2557 110.369 51.3388 110.327 51.4459 110.273C51.6599 110.165 51.9697 110.006 52.3597 109.802C53.1394 109.393 54.2414 108.799 55.5405 108.055C58.1315 106.572 61.539 104.472 64.7436 102.033L63.5322 100.442L62.3209 98.8502C59.3051 101.146 56.0598 103.149 53.553 104.584C52.3032 105.3 51.2451 105.87 50.502 106.259C50.1305 106.454 49.8382 106.604 49.6405 106.704C49.5416 106.754 49.4664 106.791 49.4168 106.816C49.392 106.828 49.3736 106.837 49.3619 106.843C49.356 106.846 49.3518 106.848 49.3493 106.849C49.348 106.85 49.3472 106.85 49.3468 106.851C49.3466 106.851 49.3465 106.851 49.3465 106.851C49.3465 106.851 49.3466 106.851 49.3466 106.851C49.3467 106.851 49.3468 106.851 50.2266 108.647ZM63.5322 100.442L64.7436 102.033C73.0496 95.7106 76.3002 87.932 75.6691 81.1802C75.0408 74.4592 70.5302 68.9506 63.9171 67.6538L63.5322 69.6165L63.1474 71.5791C67.844 72.5 71.2059 76.4114 71.6864 81.5524C72.1641 86.6625 69.7599 93.1877 62.3209 98.8503L63.5322 100.442ZM63.5322 69.6165L63.917 67.6538C57.5165 66.399 50.206 69.1045 43.4296 72.9111C36.5628 76.7685 29.7984 82.0177 24.3457 86.4741L25.6113 88.0227L26.877 89.5713C32.3001 85.1391 38.8413 80.0765 45.3886 76.3986C52.0262 72.6699 58.2382 70.6166 63.1474 71.5791L63.5322 69.6165ZM25.6113 88.0227L27.5087 87.3903L15.7548 52.1295L13.8574 52.762L11.9601 53.3945L23.714 88.6552L25.6113 88.0227ZM13.8574 52.762L15.1289 54.3058C25.6088 45.6749 39.6117 41.6895 52.3466 40.1284C65.0717 38.5685 76.2541 39.462 80.847 40.3569L81.2295 38.3938L81.612 36.4307C76.5706 35.4485 64.9638 34.5518 51.8599 36.1581C38.7657 37.7633 23.8998 41.9005 12.586 51.2182L13.8574 52.762ZM81.2295 38.3938L80.7512 40.3358C90.1215 42.6439 95.6991 47.6683 98.9298 53.8617C102.206 60.1412 103.145 67.7787 102.858 75.3255C102.573 82.8507 101.076 90.1142 99.6382 95.5193C98.9209 98.2158 98.2222 100.436 97.7045 101.977C97.4457 102.747 97.2324 103.348 97.085 103.752C97.0113 103.954 96.9541 104.107 96.9159 104.208C96.8969 104.259 96.8825 104.296 96.8733 104.321C96.8687 104.333 96.8653 104.341 96.8633 104.346C96.8623 104.349 96.8616 104.351 96.8613 104.352C96.8611 104.352 96.8611 104.352 96.861 104.353C96.861 104.352 96.8612 104.352 98.7246 105.078C100.588 105.805 100.588 105.804 100.589 105.803C100.589 105.802 100.589 105.801 100.59 105.8C100.591 105.797 100.592 105.794 100.594 105.79C100.597 105.781 100.602 105.769 100.608 105.754C100.62 105.723 100.636 105.679 100.658 105.621C100.702 105.506 100.764 105.339 100.843 105.122C101.001 104.688 101.226 104.056 101.496 103.251C102.037 101.642 102.761 99.3391 103.504 96.5475C104.986 90.9764 106.555 83.4013 106.856 75.4772C107.155 67.5746 106.201 59.1517 102.476 52.0117C98.7068 44.7854 92.1775 39.0307 81.7078 36.4519L81.2295 38.3938ZM98.7246 105.078L99.1323 107.036L130.477 100.51L130.069 98.552L129.662 96.594L98.3169 103.12L98.7246 105.078ZM130.069 98.552L132.055 98.7879L135.886 66.534L133.9 66.2981L131.914 66.0622L128.083 98.3161L130.069 98.552ZM133.9 66.2981V64.2981H112.986V66.2981V68.2981H133.9V66.2981ZM112.986 66.2981H114.986V36.2278H112.986H110.986V66.2981H112.986ZM112.986 36.2278V38.2278H225.763V36.2278V34.2278H112.986V36.2278ZM225.763 36.2278H227.763V36.2268H225.763H223.763V36.2278H225.763ZM225.763 36.2268V38.2268H318.561V36.2268V34.2268H225.763V36.2268ZM318.561 36.2268H320.561V36.219H318.561H316.561V36.2268H318.561ZM318.561 36.219L318.556 38.219L322.305 38.2268L322.31 36.2268L322.314 34.2268L318.565 34.219L318.561 36.219Z" fill="#650033"/>
</svg>
